<svg width="22" height="22" viewBox="0 0 22 22" fill="none" xmlns="http://www.w3.org/2000/svg">
<path d="M8.03649 6.97577C7.7436 6.68288 7.26873 6.68288 6.97583 6.97577C6.68294 7.26867 6.68294 7.74354 6.97583 8.03643L9.93925 10.9999L6.97583 13.9633C6.68294 14.2562 6.68294 14.731 6.97583 15.0239C7.26873 15.3168 7.7436 15.3168 8.03649 15.0239L10.9999 12.0605L13.9633 15.0239C14.2562 15.3168 14.7311 15.3168 15.024 15.0239C15.3169 14.731 15.3169 14.2562 15.024 13.9633L12.0606 10.9999L15.024 8.03643C15.3169 7.74354 15.3169 7.26867 15.024 6.97577C14.7311 6.68288 14.2562 6.68288 13.9633 6.97577L10.9999 9.93919L8.03649 6.97577Z" fill="#24292F"/>
<path fill-rule="evenodd" clip-rule="evenodd" d="M11 0C4.92487 0 0 4.92487 0 11C0 17.0751 4.92487 22 11 22C17.0751 22 22 17.0751 22 11C22 4.92487 17.0751 0 11 0ZM1.5 11C1.5 5.75329 5.75329 1.5 11 1.5C16.2467 1.5 20.5 5.75329 20.5 11C20.5 16.2467 16.2467 20.5 11 20.5C5.75329 20.5 1.5 16.2467 1.5 11Z" fill="#24292F"/>
</svg>
