<svg width="14" height="14" viewBox="0 0 15 15" fill="none" xmlns="http://www.w3.org/2000/svg">
    <path fill-rule="evenodd" clip-rule="evenodd" d="M10.4999 6.00002C10.4999 6.59096 10.3835 7.17613 10.1573 7.72209C9.93121 8.26806 9.59971 8.76413 9.18191 9.18202C8.76401 9.59982 8.26794 9.93132 7.72197 10.1575C7.17601 10.3836 6.59085 10.5 5.9999 10.5C5.40895 10.5 4.82379 10.3836 4.27782 10.1575C3.73186 9.93132 3.23578 9.59982 2.81792 9.18202C2.40005 8.76413 2.06859 8.26806 1.84244 7.72209C1.61629 7.17613 1.4999 6.59096 1.4999 6.00002C1.4999 4.80654 1.974 3.66195 2.81792 2.81804C3.66183 1.97412 4.80642 1.50002 5.9999 1.50002C7.19337 1.50002 8.33796 1.97412 9.18191 2.81804C10.0258 3.66195 10.4999 4.80654 10.4999 6.00002ZM9.67991 10.74C8.47428 11.676 6.95727 12.1173 5.4377 11.9741C3.91813 11.831 2.51024 11.1141 1.50065 9.96942C0.491052 8.82473 -0.0443482 7.33831 0.00343178 5.81277C0.0512218 4.28722 0.678602 2.83722 1.75785 1.75797C2.83711 0.678724 4.2871 0.0513442 5.81265 0.00355419C7.3382 -0.0442288 8.82461 0.491174 9.96931 1.50077C11.114 2.51036 11.8309 3.91825 11.974 5.43782C12.1172 6.95738 11.6759 8.47439 10.7399 9.68002L13.7799 12.72C13.8536 12.7887 13.9127 12.8715 13.9537 12.9635C13.9947 13.0555 14.0167 13.1548 14.0185 13.2555C14.0203 13.3562 14.0017 13.4562 13.964 13.5496C13.9263 13.643 13.8701 13.7278 13.7989 13.799C13.7277 13.8703 13.6429 13.9264 13.5495 13.9641C13.4561 14.0018 13.3561 14.0204 13.2554 14.0186C13.1547 14.0168 13.0553 13.9948 12.9634 13.9538C12.8714 13.9128 12.7886 13.8537 12.7199 13.78L9.67991 10.74Z" fill="#57606A"/>
</svg>
